#!OML:ASF E:\Steps\Project 1\Capture day 1\Session 2\Subject.ASF
:FULLY-SPECIFIED
:DEGREES
344
root 3.86718 17.1484 9.53435 -148.576 -0.478303 178.33
lowerback -16.5255 -3.53641 -4.71911
upperback 2.56243 -3.81174 0.386573
thorax 12.5209 -2.14574 2.0603
lowerneck -4.18455 -0.363662 -1.40039
upperneck 18.3493 0.128509 2.72165
head 6.24092 0.522539 1.14538
rclavicle -8.94531e-015 4.77083e-015
rhumerus -47.322 -10.2508 -71.9845
rradius 51.3655
rwrist -4.5036
rhand -6.95177 -49.5328
rfingers 7.12502
rthumb 18.9172 -78.6329
lclavicle -8.94531e-015 4.77083e-015
lhumerus -30.5693 -20.5445 80.7986
lradius 41.3686
lwrist 6.8863
lhand -22.6612 -13.5862
lfingers 7.12502
lthumb 3.77024 16.3602
rfemur -47.5219 8.93185 16.8975
rtibia 32.7593
rfoot -23.9099 -5.78895
rtoes -36.6319
lfemur -40.6347 -3.77587 -23.5499
ltibia 22.9286
lfoot -13.0526 0.323576
ltoes -37.9398
345
root 3.8585 17.132 9.53801 -147.442 -1.08923 177.883
lowerback -17.761 -3.81232 -4.75444
upperback 2.07036 -4.13733 0.452926
thorax 12.7163 -2.29901 2.0116
lowerneck -4.53227 -0.532847 -1.68841
upperneck 19.09 -0.0619456 2.97734
head 6.54189 0.458404 1.27375
rclavicle -7.15625e-015 -3.61788e-014
rhumerus -47.237 -10.3177 -72.0288
rradius 51.1675
rwrist -4.30699
rhand -6.82871 -49.5144
rfingers 7.12502
rthumb 19.0356 -78.6029
lclavicle -7.15625e-015 -3.61788e-014
lhumerus -30.6692 -20.3544 80.8102
lradius 41.2251
lwrist 6.93117
lhand -22.3552 -13.6519
lfingers 7.12502
lthumb 4.0658 16.2891
rfemur -48.7681 8.23723 16.6785
rtibia 32.3251
rfoot -24.02 -6.21493
rtoes -34.1719
lfemur -42.2752 -4.21819 -23.9221
ltibia 23.6167
lfoot -13.0711 -0.240445
ltoes -37.5165
346
root 3.83194 17.1438 9.45262 -149.105 -0.666316 178.148
lowerback -17.1678 -3.47787 -4.36383
upperback 2.38419 -3.77799 0.356076
thorax 12.662 -2.10106 1.81007
lowerneck -4.17935 -0.589109 -1.65757
upperneck 19.1077 -0.0918225 2.83744
head 6.4867 0.444548 1.22184
rclavicle 1.33186e-014 -1.15295e-014
rhumerus -47.4877 -10.3197 -72.0279
rradius 51.0633
rwrist -4.34753
rhand -6.92521 -50.1695
rfingers 7.12502
rthumb 18.9428 -79.2671
lclavicle 1.33186e-014 -1.15295e-014
lhumerus -31.073 -20.1548 80.8997
lradius 41.1505
lwrist 6.66839
lhand -22.2791 -13.6192
lfingers 7.12502
lthumb 4.1393 16.3203
rfemur -46.0385 8.64303 17.4514
rtibia 30.9616
rfoot -24.2261 -5.65413
rtoes -29.0011
lfemur -39.586 -3.7827 -24.0038
ltibia 22.7105
lfoot -13.2557 -0.193886
ltoes -36.7746
347
root 3.81936 17.1373 9.42266 -149.032 -0.806547 178.012
lowerback -17.5866 -3.47499 -4.29813
upperback 2.08282 -3.78308 0.381347
thorax 12.5582 -2.09666 1.78837
lowerneck -4.16656 -0.849373 -2.35933
upperneck 19.7754 -0.420717 3.51421
head 6.70861 0.32342 1.54543
rclavicle -2.80286e-014 -1.31198e-014
rhumerus -47.6858 -10.3328 -71.9607
rradius 50.8884
rwrist -4.25018
rhand -6.50727 -49.8767
rfingers 7.12502
rthumb 19.3447 -78.9345
lclavicle -2.80286e-014 -1.31198e-014
lhumerus -31.4374 -20.1417 81.0176
lradius 40.9651
lwrist 6.51986
lhand -22.2313 -13.6145
lfingers 7.12502
lthumb 4.18539 16.3241
rfemur -45.6962 8.33226 17.6074
rtibia 30.0605
rfoot -23.9863 -5.76975
rtoes -24.2618
lfemur -39.62 -4.00169 -24.1439
ltibia 22.8789
lfoot -13.3919 -0.260548
ltoes -37.0699
348
root 3.80717 17.1295 9.38886 -149.076 -0.817989 177.821
lowerback -18.0049 -3.43619 -4.33315
upperback 1.91821 -3.7105 0.360755
thorax 12.6089 -2.06436 1.79096
lowerneck -3.45528 -0.909137 -2.08275
upperneck 19.2669 -0.467076 3.08792
head 6.42161 0.277988 1.35132
rclavicle 3.97569e-016 7.95139e-016
rhumerus -47.6646 -10.5164 -71.8782
rradius 50.6266
rwrist -3.84743
rhand -6.02259 -49.4772
rfingers 7.12502
rthumb 19.8106 -78.4875
lclavicle 3.97569e-016 7.95139e-016
lhumerus -31.6732 -20.178 81.0941
lradius 40.8828
lwrist 6.51261
lhand -22.0111 -13.7523
lfingers 7.12502
lthumb 4.39807 16.182
rfemur -45.2428 8.24338 17.5842
rtibia 29.2375
rfoot -23.61 -6.51706
rtoes -22.3569
lfemur -39.4015 -4.16336 -24.3795
ltibia 22.8215
lfoot -13.4305 -0.306878
ltoes -36.8373
349
root 3.79447 17.1231 9.34742 -149.326 -0.751929 177.733
lowerback -18.2821 -3.34405 -4.27485
upperback 1.84769 -3.59021 0.349769
thorax 12.6755 -2.00418 1.77046
lowerneck -3.44481 -0.824131 -1.6832
upperneck 19.2548 -0.290747 2.54436
head 6.41054 0.351173 1.12185
rclavicle -8.74653e-015 4.37326e-015
rhumerus -47.5909 -10.7306 -71.8162
rradius 50.386
rwrist -3.71749
rhand -6.26946 -49.6477
rfingers 7.12502
rthumb 19.5733 -78.6824
lclavicle -8.74653e-015 4.37326e-015
lhumerus -31.9228 -20.0477 81.1779
lradius 40.9033
lwrist 6.32791
lhand -22.2006 -13.6114
lfingers 7.12502
lthumb 4.21507 16.3267
rfemur -44.4824 8.34893 17.5821
rtibia 28.5105
rfoot -23.3017 -7.38184
rtoes -21.6178
lfemur -38.8239 -4.28762 -24.5043
ltibia 22.571
lfoot -13.4625 -0.328468
ltoes -34.8662
350
root 3.78304 17.1198 9.3038 -149.598 -0.711105 177.761
lowerback -18.4554 -3.25568 -4.14282
upperback 1.73499 -3.50572 0.40899
thorax 12.6353 -1.95737 1.78245
lowerneck -3.9892 -0.933193 -1.69093
upperneck 19.9613 -0.388723 2.52283
head 6.73486 0.325202 1.11929
rclavicle 6.65929e-015 1.43125e-014
rhumerus -47.5703 -10.8308 -71.7337
rradius 50.1747
rwrist -3.86421
rhand -6.59212 -49.5505
rfingers 7.12502
rthumb 19.2631 -78.6165
lclavicle 6.65929e-015 1.43125e-014
lhumerus -32.2115 -19.8112 81.2744
lradius 40.8309
lwrist 6.2022
lhand -22.3949 -13.4744
lfingers 7.12502
lthumb 4.02747 16.4673
rfemur -43.5581 8.46827 17.6577
rtibia 27.6479
rfoot -22.9667 -7.90583
rtoes -21.6158
lfemur -38.2131 -4.45703 -24.4568
ltibia 22.3406
lfoot -13.562 -0.232568
ltoes -33.3701
351
root 3.77253 17.1182 9.26215 -149.913 -0.675064 177.679
lowerback -18.5471 -3.20356 -4.10257
upperback 1.65429 -3.44807 0.433932
thorax 12.5904 -1.9284 1.80287
lowerneck -4.82804 -0.868597 -1.35218
upperneck 20.761 -0.217324 2.11112
head 7.13807 0.420596 0.952446
rclavicle 1.97791e-014 4.96962e-015
rhumerus -47.5071 -10.9453 -71.6619
rradius 49.9478
rwrist -3.78248
rhand -6.32847 -49.1525
rfingers 7.12502
rthumb 19.5166 -78.1929
lclavicle 1.97791e-014 4.96962e-015
lhumerus -32.4186 -19.5196 81.2766
lradius 40.7514
lwrist 6.3355
lhand -22.1858 -13.5145
lfingers 7.12502
lthumb 4.22938 16.4232
rfemur -42.7086 8.72429 17.4799
rtibia 27.0697
rfoot -22.8274 -8.14585
rtoes -20.7676
lfemur -37.5864 -4.63386 -24.5543
ltibia 22.1712
lfoot -13.7217 -0.189949
ltoes -33.0271
352
root 3.76462 17.115 9.23239 -150.068 -0.664086 177.469
lowerback -18.7381 -3.21755 -4.16343
upperback 1.58945 -3.44859 0.428816
thorax 12.6306 -1.93336 1.8246
lowerneck -4.51175 -1.03592 -2.15118
upperneck 20.6199 -0.453381 2.63296
head 7.04392 0.290746 1.23728
rclavicle 3.25013e-014 -9.54166e-015
rhumerus -47.2743 -10.9813 -71.7114
rradius 49.7725
rwrist -3.731
rhand -6.20023 -49.1383
rfingers 7.12502
rthumb 19.6399 -78.1662
lclavicle 3.25013e-014 -9.54166e-015
lhumerus -32.4575 -19.1411 81.1915
lradius 40.6673
lwrist 6.43626
lhand -22.2348 -13.2698
lfingers 7.12502
lthumb 4.18204 16.6689
rfemur -42.321 8.958 17.0913
rtibia 27.0009
rfoot -23.1032 -8.20112
rtoes -19.4287
lfemur -37.2657 -4.72723 -24.8354
ltibia 22.1552
lfoot -13.8607 -0.380082
ltoes -32.6958
353
root 3.76068 17.1095 9.21286 -149.967 -0.660834 177.221
lowerback -19.2018 -3.50399 -4.50539
upperback 1.0106 -3.79788 0.677374
thorax 12.3022 -2.12905 2.18269
lowerneck -3.69322 -0.90237 -2.82789
upperneck 21.1036 -0.0881519 2.68587
head 7.04916 0.463022 1.40348
rclavicle -1.65985e-014 1.98785e-016
rhumerus -47.7557 -9.89175 -71.557
rradius 49.654
rwrist -4.11264
rhand -6.60716 -48.8055
rfingers 7.12502
rthumb 19.2486 -77.8729
lclavicle -1.65985e-014 1.98785e-016
lhumerus -33.7499 -18.0427 81.5915
lradius 40.6353
lwrist 6.23335
lhand -22.6204 -13.347
lfingers 7.12502
lthumb 3.80967 16.5987
rfemur -42.2269 9.0067 16.6712
rtibia 26.8368
rfoot -23.714 -8.07654
rtoes -18.3167
lfemur -37.2828 -4.71965 -25.1797
ltibia 22.1646
lfoot -13.963 -0.534679
ltoes -34.3763
354
root 3.74193 17.1067 9.14575 -150.762 -0.117035 177.323
lowerback -19.3072 -3.01711 -4.15409
upperback 1.46784 -3.16408 0.388478
thorax 12.7963 -1.80184 1.83987
lowerneck -4.21311 -1.00798 -1.8708
upperneck 20.7303 -0.293559 2.03389
head 7.02245 0.354629 1.00981
rclavicle 2.42517e-014 7.95139e-016
rhumerus -47.236 -10.9686 -71.6656
rradius 49.4065
rwrist -4.18586
rhand -6.87456 -48.1248
rfingers 7.12502
rthumb 18.9915 -77.2177
lclavicle 2.42517e-014 7.95139e-016
lhumerus -33.136 -18.5346 81.2529
lradius 40.5293
lwrist 6.50764
lhand -22.4664 -13.3452
lfingers 7.12502
lthumb 3.95835 16.5978
rfemur -40.6884 9.39279 16.6813
rtibia 26.0067
rfoot -24.0606 -7.31984
rtoes -16.2348
lfemur -35.6842 -4.53056 -25.3015
ltibia 21.306
lfoot -14.1491 -0.0385053
ltoes -36.0599
355
root 3.73727 17.0978 9.12548 -150.455 -0.185361 177.158
lowerback -19.9251 -3.05525 -4.21177
upperback 1.05269 -3.21049 0.415045
thorax 12.6821 -1.8319 1.87208
lowerneck -4.11034 -1.15388 -1.97436
upperneck 21.4134 -0.393549 2.08673
head 7.22988 0.341964 1.04774
rclavicle -3.70236e-014 9.93923e-015
rhumerus -47.5763 -10.9729 -71.5871
rradius 49.3818
rwrist -4.20572
rhand -6.94642 -48.4568
rfingers 7.12502
rthumb 18.9223 -77.5564
lclavicle -3.70236e-014 9.93923e-015
lhumerus -33.7926 -18.3391 81.3227
lradius 40.4733
lwrist 6.66307
lhand -22.1134 -13.2784
lfingers 7.12502
lthumb 4.29925 16.6579
rfemur -40.6383 9.24261 16.4371
rtibia 25.4935
rfoot -23.625 -7.00952
rtoes -16.1241
lfemur -36.0057 -4.62412 -25.4867
ltibia 21.4611
lfoot -14.2249 -0.361093
ltoes -34.2622
